# xmcd
#
# Track frame offsets:
#	150
#	11643
#	22853
#	37223
#	48973
#	58743
#	71695
#	87130
#	98218
#	109843
#	123083
#	135315
#	148513
#	161978
#	173275
#	186468
#	195540
#	207890
#	220720
#	231930
#	242545
#	252288
#	264413
#
# Disc length: 3679 seconds
#
# Revision: 1
# Processed by: cddbd v1.4PL0 Copyright (c) Steve Scherf et al.
# Submitted via: audiograbber 1.81.03
#
DISCID=3d0e5d17
DTITLE=Various Artist - The Best Blues Volume 2
DYEAR=1989
DGENRE=Blues
TTITLE0=Muddy Waters - Just A Dream
TTITLE1=Eddie Taylor - Stroll Out West
TTITLE2=Otis Rush - So Many Roads, So Many Trains
TTITLE3=Albert King - Wild Woman
TTITLE4=Bo Diddley - Hey Bo Diddley
TTITLE5=Lee Dorsey - Ride Your Pony
TTITLE6=Carter Brothers - Booze In The Bottle
TTITLE7=Jimmy Reed - Good Lover
TTITLE8=Sammy Lewis - I Feel So Worried
TTITLE9=Howlin' Wolf - California Blues
TTITLE10=Elmore James - Got To Move
TTITLE11=Walter Horton - Walter's Instrumental
TTITLE12=John Brim - You Got Me
TTITLE13=John Lee Hooker - This Is Hip
TTITLE14=Junior Parker - Feelin' Good
TTITLE15=Memphis Sim - Steppin' Out
TTITLE16=Otis Rush - So Close
TTITLE17=George "Wild Child" Butler - Putt It All In There
TTITLE18=Frank Frost and The Night Hawks - Jelly Roll King
TTITLE19=Johnny Winter - That's What Love Does
TTITLE20=Willie Johnson - So Long Baby Goodbye
TTITLE21=Otis Spann - Five Spot
TTITLE22=John Lee Hooker - Boom Boom
EXTD=
EXTT0=
EXTT1=
EXTT2=
EXTT3=
EXTT4=
EXTT5=
EXTT6=
EXTT7=
EXTT8=
EXTT9=
EXTT10=
EXTT11=
EXTT12=
EXTT13=
EXTT14=
EXTT15=
EXTT16=
EXTT17=
EXTT18=
EXTT19=
EXTT20=
EXTT21=
EXTT22=
PLAYORDER=
